<svg width="26" height="26" viewBox="0 0 26 26" fill="none" xmlns="http://www.w3.org/2000/svg">
<path d="M23.7998 13C23.7998 7.03532 18.9647 2.2002 13 2.2002C7.03532 2.2002 2.2002 7.03532 2.2002 13V23.7998H23.7998V13ZM25 25H1V13C1 6.37258 6.37258 1 13 1C19.6274 1 25 6.37258 25 13V25Z" fill="white" fill-opacity="0.65"/>
<path d="M5.60938 19.5449L13 13.21L20.3906 19.5449L19.6094 20.4551L13 14.79L6.39062 20.4551L5.60938 19.5449Z" fill="white" fill-opacity="0.65"/>
<path d="M5.60938 14.5449L13 8.20996L20.3906 14.5449L19.6094 15.4551L13 9.79004L6.39062 15.4551L5.60938 14.5449Z" fill="white" fill-opacity="0.65"/>
</svg>
