<svg width="26" height="26" viewBox="0 0 26 26" fill="none" xmlns="http://www.w3.org/2000/svg">
<path d="M13 2.2002C7.03532 2.2002 2.2002 7.03532 2.2002 13C2.2002 18.9647 7.03532 23.7998 13 23.7998L23.7998 23.7998L23.7998 2.2002L13 2.2002ZM25 1L25 25L13 25C6.37258 25 1 19.6274 1 13C1 6.37258 6.37258 1 13 1L25 1Z" fill="white" fill-opacity="0.65"/>
<path d="M21 9.7998V11H11V9.7998H21Z" fill="white"/>
<path d="M19 12.7998V14H11V12.7998H19Z" fill="white"/>
<path d="M18 15.7998V17H11V15.7998H18Z" fill="white"/>
<path d="M10 11L10 13L9 13L9 16L8 16L8 17L6 17L6 15L8 15L8 10L9 10L9 11L10 11Z" fill="white"/>
</svg>
